<svg width="505" height="127" viewBox="0 0 505 127" fill="none" xmlns="http://www.w3.org/2000/svg">
<mask id="path-1-inside-1_116_799" fill="white">
<path d="M410.667 4.66587C410.34 1.8931 412.852 -0.37252 415.556 0.324261C436.977 5.845 449.371 14.094 474.579 26.6415C501.888 40.2346 511.188 55.9275 500.947 71.1345C490.707 86.3416 461.536 100.156 418.241 110.3C374.946 120.445 320.111 126.315 262.77 126.944C205.429 127.572 149.003 122.922 102.79 113.758C56.577 104.595 23.3335 91.4651 8.53705 76.5325C-6.2594 61.5999 -1.72601 45.7553 21.3903 31.6095C44.425 17.5135 59.8668 9.93414 110.319 2.80749C110.662 2.75906 111.022 2.81713 111.329 2.97594C112.778 3.72388 112.397 5.90081 110.784 6.14064C66.3441 12.7486 52.8557 19.7892 31.5685 32.8158C9.47028 46.3386 5.13655 61.4854 19.2813 75.7603C33.4261 90.0353 65.2056 102.587 109.383 111.347C153.561 120.107 207.502 124.552 262.318 123.952C317.133 123.351 369.554 117.739 410.942 108.041C452.329 98.343 480.216 85.1375 490.006 70.6001C499.795 56.0628 490.905 41.061 464.798 28.0666C439.856 15.6515 433.092 12.7501 413.788 8.15542C412.122 7.75898 410.867 6.36632 410.667 4.66587Z"/>
</mask>
<path d="M413.788 8.15542L417.261 -6.43694L413.788 8.15542ZM110.319 2.80749L108.221 -12.0451L110.319 2.80749ZM111.329 2.97594L118.21 -10.353L111.329 2.97594ZM410.667 4.66587L425.564 2.91325L410.667 4.66587ZM411.812 14.8496C431.207 19.8482 441.19 26.7773 467.895 40.07L481.263 13.213C457.552 1.41074 442.746 -8.15824 419.3 -14.2011L411.812 14.8496ZM467.895 40.07C480.585 46.3865 486.666 52.0922 488.94 55.9303C489.926 57.5938 490.018 58.59 489.998 59.1235C489.978 59.6829 489.788 60.8514 488.506 62.7559L513.389 79.5132C517.227 73.8142 519.715 67.3184 519.978 60.2335C520.241 53.1229 518.221 46.495 514.748 40.6353C508.106 29.4268 495.882 20.4896 481.263 13.213L467.895 40.07ZM488.506 62.7559C485.622 67.0377 478.664 72.8583 465.569 79.059C452.843 85.0854 435.815 90.7761 414.819 95.6958L421.663 124.905C443.962 119.68 463.166 113.391 478.409 106.173C493.284 99.1283 506.032 90.4384 513.389 79.5132L488.506 62.7559ZM414.819 95.6958C372.848 105.53 319.147 111.325 262.605 111.945L262.934 141.943C321.075 141.306 377.045 135.36 421.663 124.905L414.819 95.6958ZM262.605 111.945C206.084 112.564 150.715 107.969 105.708 99.0448L99.8726 128.472C147.291 137.874 204.773 142.581 262.934 141.943L262.605 111.945ZM105.708 99.0448C83.2044 94.5827 64.2593 89.2293 49.3925 83.3575C34.2682 77.3841 24.47 71.301 19.1921 65.9746L-2.11802 87.0904C7.40056 96.6966 21.6223 104.645 38.3722 111.26C55.3794 117.977 76.1626 123.77 99.8726 128.472L105.708 99.0448ZM19.1921 65.9746C14.2793 61.0166 14.9435 58.6858 15.1677 57.9021C15.8004 55.6908 18.8408 50.7553 29.2198 44.404L13.5607 18.815C0.823487 26.6095 -9.96099 36.6692 -13.6749 49.6498C-17.7974 64.058 -12.0017 77.1158 -2.11802 87.0904L19.1921 65.9746ZM29.2198 44.404C40.4342 37.5413 48.9784 32.7789 60.5104 28.7591C72.2347 24.6723 87.6202 21.1627 112.417 17.66L108.221 -12.0451C82.5659 -8.42112 65.0043 -4.57768 50.6358 0.430837C36.0751 5.50638 25.3811 11.5816 13.5607 18.815L29.2198 44.404ZM108.578 -8.69624C85.8856 -5.32201 70.2948 -1.72711 57.3672 2.97458C44.3074 7.72431 34.5634 13.3974 23.739 20.0213L39.398 45.6103C49.8608 39.2076 57.5046 34.8471 67.6208 31.1679C77.8691 27.4407 91.2425 24.2113 112.99 20.9775L108.578 -8.69624ZM23.739 20.0213C11.5107 27.5043 1.03069 37.2338 -2.58754 49.8799C-6.61425 63.9535 -0.931547 76.6725 8.62628 86.3183L29.9364 65.2024C25.3494 60.5733 26.1266 58.5814 26.2551 58.1322C26.7921 56.2554 29.528 51.6501 39.398 45.6103L23.739 20.0213ZM8.62628 86.3183C17.819 95.5956 31.5118 103.235 47.5598 109.573C63.8652 116.013 83.7736 121.561 106.466 126.06L112.301 96.6332C90.8154 92.3729 72.7451 87.2649 58.5801 81.6704C44.1578 75.9742 34.8884 70.2 29.9364 65.2024L8.62628 86.3183ZM106.466 126.06C151.849 135.059 206.846 139.561 262.482 138.951L262.153 108.952C208.158 109.544 155.274 105.154 112.301 96.6332L106.466 126.06ZM262.482 138.951C318.097 138.341 371.652 132.653 414.364 122.645L407.519 93.4365C367.455 102.824 316.169 108.36 262.153 108.952L262.482 138.951ZM414.364 122.645C435.709 117.644 454.115 111.619 468.743 104.692C483.002 97.9395 495.315 89.5692 502.447 78.9788L477.564 62.2215C474.906 66.1684 468.381 71.6695 455.903 77.5785C443.793 83.3133 427.562 88.7402 407.519 93.4365L414.364 122.645ZM502.447 78.9788C506.172 73.4472 508.602 67.1202 508.858 60.2037C509.115 53.2613 507.142 46.8013 503.767 41.1073C497.321 30.2301 485.5 21.6153 471.482 14.6381L458.114 41.495C470.203 47.5122 475.881 52.8956 477.959 56.4023C478.847 57.9001 478.892 58.7285 478.879 59.0937C478.864 59.4847 478.734 60.4844 477.564 62.2215L502.447 78.9788ZM471.482 14.6381C446.091 1.99928 438.162 -1.46222 417.261 -6.43694L410.314 22.7478C428.022 26.9624 433.622 29.3037 458.114 41.495L471.482 14.6381ZM417.261 -6.43694C421.633 -5.39627 425.018 -1.72858 425.564 2.91325L395.769 6.41849C396.716 14.4612 402.611 20.9142 410.314 22.7478L417.261 -6.43694ZM104.449 16.3049C92.537 10.156 96.2553 -6.86393 108.578 -8.69624L112.99 20.9775C128.539 18.6655 133.019 -2.70824 118.21 -10.353L104.449 16.3049ZM112.417 17.66C109.769 18.0342 106.981 17.6118 104.449 16.3049L118.21 -10.353C115.062 -11.9775 111.556 -12.5161 108.221 -12.0451L112.417 17.66ZM419.3 -14.2011C406.016 -17.6247 394.257 -6.43691 395.769 6.41849L425.564 2.91325C426.424 10.2231 419.689 16.8797 411.812 14.8496L419.3 -14.2011Z" fill="#43E4AA" mask="url(#path-1-inside-1_116_799)"/>
</svg>
